<?xml version="1.0" encoding="utf-8"?>
<svg xmlns="http://www.w3.org/2000/svg" xmlns:svg="http://www.w3.org/2000/svg" version="1.1" viewBox="0 0 1400 340">
	<title>The titlepage for the Standard Ebooks edition of A Yankee in Canada, by Henry David Thoreau</title>
	<g aria-label="A YANKEE IN CANADA">
		<path d="m 164.85525,52.807016 h -16.2807 L 117.41666,130 h 18.90058 l 5.7076,-15.4386 h 29.38012 L 177.11256,130 h 18.90059 z m 0.56141,46.31579 h -17.40351 l 8.60819,-22.45614 h 0.18713 z"/>
		<path d="m 217.69005,52.807016 28.44444,42.5731 V 130 h 17.59065 V 95.380116 l 28.44444,-42.5731 h -21.1462 L 254.92981,77.508771 238.83625,52.807016 Z"/>
		<path d="M 330.80556,52.807016 H 314.52485 L 283.36696,130 h 18.90058 l 5.70761,-15.4386 h 29.38011 L 343.06287,130 h 18.90058 z m 0.5614,46.31579 h -17.40351 l 8.60819,-22.45614 h 0.18713 z"/>
		<path d="m 387.47369,82.093566 h 0.18713 L 418.35088,130 h 17.59064 V 52.807016 h -17.59064 v 47.906434 h -0.18713 L 387.47369,52.807016 H 369.88304 V 130 h 17.59065 z"/>
		<path d="M 522.45468,130 486.52485,89.391812 517.58918,52.807016 H 496.25585 L 469.77631,84.33918 V 52.807016 H 452.18567 V 130 h 17.59064 V 97.251461 L 498.22076,130 Z"/>
		<path d="M 574.99709,52.807016 H 530.83335 V 130 h 44.16374 v -15.4386 h -26.5731 V 99.029239 h 25.45029 V 83.590642 H 548.42399 V 68.245613 h 26.5731 z"/>
		<path d="M 634.27339,52.807016 H 590.10965 V 130 h 44.16374 v -15.4386 h -26.5731 V 99.029239 h 25.4503 V 83.590642 h -25.4503 V 68.245613 h 26.5731 z"/>
		<path d="M 697.56141,52.807016 H 679.97077 V 130 h 17.59064 z"/>
		<path d="m 731.43568,82.093566 h 0.18713 L 762.31287,130 h 17.59064 V 52.807016 h -17.59064 v 47.906434 h -0.18713 L 731.43568,52.807016 H 713.84503 V 130 h 17.59065 z"/>
		<path d="m 864.8845,114.09357 c -17.68421,0 -25.4503,-12.35088 -25.4503,-22.736846 0,-10.292397 7.76609,-22.643275 25.4503,-22.643275 8.98245,0 15.15789,4.77193 15.15789,4.77193 l 7.48538,-14.97076 c 0,0 -8.60818,-7.111112 -25.35672,-7.111112 -21.89474,0 -41.82457,17.964913 -41.82457,40.140352 0,22.081871 20.0234,39.859651 41.82457,39.859651 16.74854,0 25.35672,-7.11111 25.35672,-7.11111 l -7.48538,-14.97076 c 0,0 -6.17544,4.77193 -15.15789,4.77193 z"/>
		<path d="M 938.55411,52.807016 H 922.2734 L 891.11551,130 h 18.90058 l 5.70761,-15.4386 h 29.38011 L 950.81142,130 H 969.712 Z m 0.5614,46.31579 H 921.712 l 8.60819,-22.45614 h 0.18713 z"/>
		<path d="m 995.22224,82.093566 h 0.18713 L 1026.0994,130 h 17.5907 V 52.807016 h -17.5907 v 47.906434 h -0.1871 L 995.22224,52.807016 H 977.63159 V 130 h 17.59065 z"/>
		<path d="m 1099.1389,52.807016 h -16.2807 L 1051.7003,130 h 18.9006 l 5.7076,-15.4386 h 29.3801 L 1111.3962,130 h 18.9006 z m 0.5614,46.31579 h -17.4035 l 8.6082,-22.45614 h 0.1871 z"/>
		<path d="M 1138.2164,52.807016 V 130 h 22.3625 c 21.2398,0 38.924,-16.09357 38.924,-38.643276 0,-22.45614 -17.7778,-38.549708 -38.924,-38.549708 z M 1155.807,114.2807 V 68.526315 h 2.7135 c 13.0994,0 21.9883,10.011696 21.9883,22.923977 -0.094,12.912278 -8.9825,22.830408 -21.9883,22.830408 z"/>
		<path d="m 1251.5,52.807016 h -16.2807 L 1204.0614,130 h 18.9006 l 5.7076,-15.4386 h 29.3801 L 1263.7573,130 h 18.9006 z m 0.5614,46.31579 h -17.4035 l 8.6082,-22.45614 h 0.1871 z"/>
	</g>
	<g aria-label="HENRY DAVID THOREAU">
		<path d="M 238.74123,266.77193 H 257.4079 V 290 h 13.19298 V 232.10526 H 257.4079 v 23.08772 H 238.74123 V 232.10526 H 225.54825 V 290 h 13.19298 z"/>
		<path d="M 317.125,232.10526 H 284.00219 V 290 H 317.125 V 278.42105 H 297.19518 V 266.77193 H 316.2829 V 255.19298 H 297.19518 V 243.68421 H 317.125 Z"/>
		<path d="m 342.90241,254.07018 h 0.14035 L 366.06031,290 h 13.19298 v -57.89474 h -13.19298 v 35.92983 h -0.14036 L 342.90241,232.10526 H 329.70943 V 290 h 13.19298 z"/>
		<path d="M 392.6864,232.10526 V 290 h 13.19299 V 267.12281 L 423.5636,290 h 16.77193 L 420.4057,266.07018 c 7.08772,-2.24562 11.85965,-8.07018 11.85965,-16.77193 0,-11.36842 -8.14035,-17.19299 -18.87719,-17.19299 z m 13.19299,25.68421 v -15.15789 h 1.54385 c 4.98246,0 10.94737,0.35088 10.94737,7.57895 0,7.22807 -5.96491,7.57894 -10.94737,7.57894 z"/>
		<path d="m 435.36733,232.10526 21.33334,31.92983 V 290 h 13.19298 v -25.96491 l 21.33333,-31.92983 h -15.85965 l -12.07017,18.52632 -12.07018,-18.52632 z"/>
		<path d="M 522.54386,232.10526 V 290 h 16.77192 c 15.92983,0 29.19299,-12.07018 29.19299,-28.98246 0,-16.8421 -13.33334,-28.91228 -29.19299,-28.91228 z m 13.19298,46.10527 v -34.31579 h 2.03509 c 9.82456,0 16.49122,7.50877 16.49122,17.19298 -0.0702,9.68421 -6.73684,17.12281 -16.49122,17.12281 z"/>
		<path d="M 608.7566,232.10526 H 596.54607 L 573.17765,290 h 14.17544 l 4.2807,-11.57895 h 22.03509 L 617.94958,290 h 14.17544 z m 0.42105,34.73685 H 596.12502 L 602.58116,250 h 0.14035 z"/>
		<path d="m 651.38926,290 h 10.38597 l 24.2807,-57.89474 h -14.8772 l -14.59649,38.03509 -14.59649,-38.03509 h -14.87719 z"/>
		<path d="M 706.43859,232.10526 H 693.24561 V 290 h 13.19298 z"/>
		<path d="M 719.90131,232.10526 V 290 h 16.77193 c 15.92982,0 29.19298,-12.07018 29.19298,-28.98246 0,-16.8421 -13.33333,-28.91228 -29.19298,-28.91228 z m 13.19298,46.10527 v -34.31579 h 2.03509 c 9.82456,0 16.49123,7.50877 16.49123,17.19298 -0.0702,9.68421 -6.73685,17.12281 -16.49123,17.12281 z"/>
		<path d="m 793.82344,243.68421 h 13.75439 V 290 h 13.19298 v -46.31579 h 13.75439 v -11.57895 h -40.70176 z"/>
		<path d="m 857.46932,266.77193 h 18.66667 V 290 h 13.19298 v -57.89474 h -13.19298 v 23.08772 H 857.46932 V 232.10526 H 844.27634 V 290 h 13.19298 z"/>
		<path d="m 900.13377,261.01754 c 0,16.91228 12.07017,30.03509 29.19298,30.03509 16.63158,0 29.1228,-13.12281 29.1228,-30.03509 0,-16.91228 -13.05263,-29.96491 -29.1228,-29.96491 -15.92983,0 -29.19298,13.05263 -29.19298,29.96491 z m 14.24561,0 c 0,-8.63157 4.77193,-17.26315 14.94737,-17.26315 10.24561,0 14.87719,8.63158 14.87719,17.26315 0,8.63158 -4.35088,17.26316 -14.87719,17.26316 -10.80702,0 -14.94737,-8.63158 -14.94737,-17.26316 z"/>
		<path d="M 969.27084,232.10526 V 290 h 13.19299 V 267.12281 L 1000.148,290 h 16.772 l -19.92986,-23.92982 c 7.08776,-2.24562 11.85966,-8.07018 11.85966,-16.77193 0,-11.36842 -8.1404,-17.19299 -18.8772,-17.19299 z m 13.19299,25.68421 v -15.15789 h 1.54386 c 4.98245,0 10.94737,0.35088 10.94737,7.57895 0,7.22807 -5.96492,7.57894 -10.94737,7.57894 z"/>
		<path d="m 1057.6952,232.10526 h -33.1228 V 290 h 33.1228 v -11.57895 h -19.9299 v -11.64912 h 19.0878 v -11.57895 h -19.0878 v -11.50877 h 19.9299 z"/>
		<path d="m 1100.0943,232.10526 h -12.2106 L 1064.5153,290 h 14.1755 l 4.2807,-11.57895 h 22.0351 L 1109.2873,290 h 14.1754 z m 0.421,34.73685 h -13.0526 L 1093.9188,250 h 0.1404 z"/>
		<path d="m 1175.1437,232.10526 h -13.193 v 33.47369 c 0,9.68421 -2.9474,12.49123 -9.4035,12.49123 -6.4562,0 -9.4035,-2.80702 -9.4035,-12.49123 v -33.47369 h -13.193 v 37.33334 c 0,14.31579 7.8596,21.61403 22.5965,21.61403 14.7368,0 22.5965,-7.29824 22.5965,-21.61403 z"/>
	</g>
</svg>
